#!OML:ASF E:\emotionWalksFemale\Project 1\Capture day 1\Session 1\Female1.ASF
:FULLY-SPECIFIED
:DEGREES
810
root 9.34584 15.1044 32.8704 -2.9986 -3.08792 -6.12782
lowerback 7.22743 2.7992 5.67941
upperback -4.05811 4.42979 0.843895
thorax -7.99407 1.88151 -2.8945
lowerneck -5.31282 -4.55187 -10.2311
upperneck 10.3233 -6.46993 11.4639
head 4.65437 -2.99578 4.85939
rclavicle -9.39258e-015 3.97569e-016
rhumerus -29.3819 19.3714 -93.8135
rradius 39.4553
rwrist 13.2275
rhand 1.85407 -53.6588
rfingers 7.12502
rthumb 27.365 -81.6921
lclavicle -9.39258e-015 3.97569e-016
lhumerus -49.881 3.35315 80.0924
lradius 33.2528
lwrist -16.2237
lhand -5.32891 -33.3147
lfingers 7.12502
lthumb 20.4774 -4.37451
rfemur 22.3203 8.74395 37.4783
rtibia 3.18055e-014
rfoot -9.55768 -21.2251
rtoes -4.79338
lfemur -32.5416 -38.2011 -0.0874269
ltibia 24.6359
lfoot -30.4357 34.9014
ltoes -2.16445
811
root 9.3714 15.0826 32.9989 -2.98218 -3.34947 -5.93112
lowerback 7.17717 2.83411 5.53634
upperback -4.07845 4.4541 0.785916
thorax -7.98941 1.89937 -2.87686
lowerneck -5.32171 -4.53486 -10.3144
upperneck 10.2364 -6.45061 11.6269
head 4.63513 -2.98176 4.92633
rclavicle 1.02374e-014 -7.95139e-016
rhumerus -29.738 18.9691 -94.059
rradius 39.3729
rwrist 13.1609
rhand 2.40896 -53.4855
rfingers 7.12502
rthumb 27.8956 -81.4339
lclavicle 1.02374e-014 -7.95139e-016
lhumerus -49.9275 3.16796 80.4602
lradius 33.6531
lwrist -16.0805
lhand -5.10479 -33.2977
lfingers 7.12502
lthumb 20.6927 -4.38086
rfemur 22.8441 8.58896 37.0943
rtibia -1.27222e-014
rfoot -9.40361 -20.7671
rtoes -5.5727
lfemur -32.1134 -37.9515 -0.55803
ltibia 24.4439
lfoot -30.4553 34.2815
ltoes -0.383361
812
root 9.39839 15.0661 33.1339 -3.04026 -3.62719 -6.01174
lowerback 7.01136 2.87668 5.73511
upperback -3.9882 4.51565 0.79039
thorax -7.77658 1.92845 -2.97565
lowerneck -5.38245 -4.57707 -10.3472
upperneck 10.1782 -6.50385 11.6972
head 4.63741 -3.00421 4.94894
rclavicle 2.03257e-014 9.14409e-015
rhumerus -30.0185 18.4426 -94.2471
rradius 39.2053
rwrist 13.198
rhand 2.49654 -53.5825
rfingers 7.12502
rthumb 27.9794 -81.5172
lclavicle 2.03257e-014 9.14409e-015
lhumerus -49.7821 2.66585 81.0339
lradius 33.9318
lwrist -15.3979
lhand -5.24027 -33.2834
lfingers 7.12502
lthumb 20.5625 -4.3524
rfemur 23.4528 8.40841 37.0073
rtibia -1.90833e-014
rfoot -9.53884 -20.4372
rtoes -5.46366
lfemur -31.3931 -37.1411 -1.18209
ltibia 24.4373
lfoot -30.5499 32.866
ltoes 3.79951
813
root 9.42519 15.0481 33.2773 -2.99493 -3.9519 -5.9398
lowerback 6.83729 2.9056 5.64038
upperback -4.06265 4.53759 0.820583
thorax -7.76278 1.94466 -2.88535
lowerneck -5.50468 -4.5924 -10.3541
upperneck 10.3679 -6.53065 11.7036
head 4.71922 -3.01187 4.94869
rclavicle -3.11098e-014 -1.55052e-014
rhumerus -30.5198 17.7192 -94.4351
rradius 38.911
rwrist 13.503
rhand 2.29988 -53.412
rfingers 7.12502
rthumb 27.7913 -81.3772
lclavicle -3.11098e-014 -1.55052e-014
lhumerus -49.9348 2.2174 81.6177
lradius 34.3512
lwrist -14.4652
lhand -5.26545 -33.0474
lfingers 7.12502
lthumb 20.5384 -4.1138
rfemur 24.0409 8.31798 36.747
rtibia -1.59028e-014
rfoot -9.61715 -20.2146
rtoes -6.04129
lfemur -30.6005 -35.9747 -2.15633
ltibia 24.5319
lfoot -29.0405 32.79
ltoes -0.794284
814
root 9.45114 15.0302 33.4174 -2.8373 -4.28269 -5.8275
lowerback 6.58589 2.94558 5.53442
upperback -4.18108 4.56667 0.804657
thorax -7.74783 1.96314 -2.8346
lowerneck -5.63214 -4.61092 -10.3785
upperneck 10.5599 -6.56587 11.7581
head 4.80584 -3.02162 4.96612
rclavicle -3.39425e-014 -8.74653e-015
rhumerus -31.0889 16.9718 -94.6737
rradius 38.6259
rwrist 13.6138
rhand 1.78328 -52.9075
rfingers 7.12502
rthumb 27.2973 -80.9515
lclavicle -3.39425e-014 -8.74653e-015
lhumerus -50.1555 1.98965 81.9698
lradius 34.9645
lwrist -13.9428
lhand -4.91833 -32.8217
lfingers 7.12502
lthumb 20.8719 -3.92447
rfemur 24.5381 8.26475 36.446
rtibia 4.13472e-014
rfoot -9.4323 -19.8433
rtoes -7.00265
lfemur -29.7172 -33.8257 -3.51654
ltibia 24.7398
lfoot -26.6462 31.7715
ltoes -5.99005
815
root 9.47901 15.0153 33.5545 -2.70799 -4.68501 -5.91278
lowerback 6.39801 2.99434 5.61485
upperback -4.31132 4.63553 0.845935
thorax -7.77138 1.991 -2.83592
lowerneck -5.53903 -4.59361 -10.3581
upperneck 10.6198 -6.56021 11.7768
head 4.80718 -3.01974 4.97126
rclavicle -5.561e-014 -1.59028e-014
rhumerus -31.8041 16.5817 -94.9927
rradius 38.4073
rwrist 13.4049
rhand 1.36304 -52.9783
rfingers 7.12502
rthumb 26.8953 -81.0849
lclavicle -5.561e-014 -1.59028e-014
lhumerus -50.3403 1.97525 82.1296
lradius 35.4465
lwrist -13.8608
lhand -4.48676 -32.9063
lfingers 7.12502
lthumb 21.2865 -4.05525
rfemur 25.0446 8.24859 36.3861
rtibia 3.81667e-014
rfoot -9.10278 -19.3217
rtoes -6.14268
lfemur -28.8142 -31.9326 -4.49306
ltibia 24.8692
lfoot -25.2258 30.3662
ltoes -6.88106
816
root 9.50889 15.0088 33.6965 -2.72622 -5.13369 -5.866
lowerback 6.28175 3.04928 5.58135
upperback -4.40095 4.70147 0.845706
thorax -7.79734 2.02282 -2.82066
lowerneck -5.41026 -4.52836 -10.2107
upperneck 10.6438 -6.50077 11.7906
head 4.78086 -2.98814 4.95817
rclavicle -2.96686e-014 3.97569e-016
rhumerus -32.4733 16.2954 -95.3089
rradius 38.0561
rwrist 13.3202
rhand 1.69173 -53.389
rfingers 7.12502
rthumb 27.2097 -81.4467
lclavicle -2.96686e-014 3.97569e-016
lhumerus -50.4453 1.98316 82.2559
lradius 35.6983
lwrist -13.6336
lhand -4.36459 -33.1508
lfingers 7.12502
lthumb 21.4038 -4.31306
rfemur 25.6201 8.2707 36.1395
rtibia 2.8625e-014
rfoot -8.15988 -18.8086
rtoes -3.68292
lfemur -27.8349 -31.0633 -5.33262
ltibia 24.9073
lfoot -24.5991 29.6266
ltoes -5.16538
